<svg width="32" height="32" viewBox="0 0 32 32" fill="none" xmlns="http://www.w3.org/2000/svg">
<g filter="url(#filter0_d)">
<rect x="4" width="24" height="24" rx="12" fill="white"/>
</g>
<g clip-path="url(#clip0)">
<path fill-rule="evenodd" clip-rule="evenodd" d="M7.68079 6.45057C6.58474 8.09382 5.99988 10.0249 6 12.0001C6 14.6523 7.05357 17.1958 8.92893 19.0712C10.8043 20.9465 13.3478 22.0001 16 22.0001C18.6522 22.0001 21.1957 20.9465 23.0711 19.0712C24.9464 17.1958 26 14.6523 26 12.0001C26 10.6641 25.736 9.38678 25.2613 8.21878C25.6483 7.90477 25.904 7.45763 25.9785 6.96492C26.0531 6.47221 25.941 5.96943 25.6642 5.55504C25.3874 5.14065 24.966 4.84451 24.4823 4.7246C23.9986 4.60469 23.4876 4.66966 23.0493 4.90678C21.6483 3.51436 19.8664 2.56803 17.9282 2.18717C15.99 1.80631 13.9824 2.00797 12.1587 2.76672C10.335 3.52547 8.77685 4.80732 7.68079 6.45057ZM23.5286 6.19538C23.6536 6.07035 23.8232 6.00011 24 6.00011C24.1768 6.00011 24.3464 6.07035 24.4714 6.19538C24.5964 6.3204 24.6667 6.48997 24.6667 6.66678C24.6667 6.84359 24.5964 7.01316 24.4714 7.13819C24.3464 7.26321 24.1768 7.33345 24 7.33345C23.8232 7.33345 23.6536 7.26321 23.5286 7.13819C23.4036 7.01316 23.3333 6.84359 23.3333 6.66678C23.3333 6.48997 23.4036 6.3204 23.5286 6.19538ZM10.6667 10.0001H8.66667V8.66678H12C12.1238 8.66678 12.2452 8.70126 12.3505 8.76635C12.4558 8.83144 12.5409 8.92457 12.5963 9.03531C12.6517 9.14604 12.6751 9.27001 12.664 9.39332C12.6529 9.51663 12.6076 9.6344 12.5333 9.73345L11.2653 11.4241C11.7222 11.5666 12.1128 11.8681 12.3663 12.274C12.6198 12.6799 12.7194 13.1632 12.6469 13.6362C12.5745 14.1092 12.3349 14.5406 11.9715 14.852C11.6082 15.1634 11.1452 15.3342 10.6667 15.3334H8.66667V14.0001H10.6667C10.8435 14.0001 11.013 13.9299 11.1381 13.8049C11.2631 13.6798 11.3333 13.5103 11.3333 13.3334C11.3333 13.1566 11.2631 12.9871 11.1381 12.862C11.013 12.737 10.8435 12.6668 10.6667 12.6668H10C9.87619 12.6668 9.75483 12.6323 9.64951 12.5672C9.54419 12.5021 9.45908 12.409 9.40371 12.2983C9.34835 12.1875 9.32491 12.0636 9.33603 11.9402C9.34715 11.8169 9.39238 11.6992 9.46667 11.6001L10.6667 10.0001ZM14.5858 9.25257C14.9609 8.87749 15.4696 8.66678 16 8.66678H16.6667V10.0001H16C15.8232 10.0001 15.6536 10.0704 15.5286 10.1954C15.4036 10.3204 15.3333 10.49 15.3333 10.6668V11.3334H16C16.3956 11.3334 16.7822 11.4507 17.1111 11.6705C17.44 11.8903 17.6964 12.2026 17.8478 12.5681C17.9991 12.9335 18.0387 13.3357 17.9616 13.7236C17.8844 14.1116 17.6939 14.468 17.4142 14.7477C17.1345 15.0274 16.7781 15.2178 16.3902 15.295C16.0022 15.3722 15.6001 15.3326 15.2346 15.1812C14.8692 15.0298 14.5568 14.7735 14.3371 14.4446C14.1173 14.1157 14 13.729 14 13.3334V10.6668C14 10.1363 14.2107 9.62764 14.5858 9.25257ZM19.9191 9.25257C19.544 9.62764 19.3333 10.1363 19.3333 10.6668V13.3334C19.3333 13.8639 19.544 14.3726 19.9191 14.7477C20.2942 15.1227 20.8029 15.3334 21.3333 15.3334C21.8638 15.3334 22.3725 15.1227 22.7475 14.7477C23.1226 14.3726 23.3333 13.8639 23.3333 13.3334V10.6668C23.3333 10.1363 23.1226 9.62764 22.7475 9.25257C22.3725 8.87749 21.8638 8.66678 21.3333 8.66678C20.8029 8.66678 20.2942 8.87749 19.9191 9.25257ZM21.3333 9.99997C21.1565 9.99997 20.987 10.0702 20.8619 10.1952C20.7369 10.3203 20.6667 10.4898 20.6667 10.6666V13.3333C20.6667 13.5101 20.7369 13.6797 20.8619 13.8047C20.987 13.9297 21.1565 14 21.3333 14C21.5101 14 21.6797 13.9297 21.8047 13.8047C21.9298 13.6797 22 13.5101 22 13.3333V10.6666C22 10.4898 21.9298 10.3203 21.8047 10.1952C21.6797 10.0702 21.5101 9.99997 21.3333 9.99997ZM15.3333 13.3333V12.6666H16C16.1318 12.6666 16.2607 12.7057 16.3704 12.779C16.48 12.8523 16.5655 12.9564 16.6159 13.0782C16.6664 13.2 16.6796 13.3341 16.6539 13.4634C16.6281 13.5927 16.5646 13.7115 16.4714 13.8047C16.3782 13.898 16.2594 13.9614 16.1301 13.9872C16.0007 14.0129 15.8667 13.9997 15.7449 13.9492C15.6231 13.8988 15.5189 13.8133 15.4457 13.7037C15.3724 13.5941 15.3333 13.4652 15.3333 13.3333Z" fill="#556081"/>
</g>
<defs>
<filter id="filter0_d" x="0" y="0" width="32" height="32" filterUnits="userSpaceOnUse" color-interpolation-filters="sRGB">
<feFlood flood-opacity="0" result="BackgroundImageFix"/>
<feColorMatrix in="SourceAlpha" type="matrix" values="0 0 0 0 0 0 0 0 0 0 0 0 0 0 0 0 0 0 127 0"/>
<feOffset dy="4"/>
<feGaussianBlur stdDeviation="2"/>
<feColorMatrix type="matrix" values="0 0 0 0 0 0 0 0 0 0 0 0 0 0 0 0 0 0 0.08 0"/>
<feBlend mode="normal" in2="BackgroundImageFix" result="effect1_dropShadow"/>
<feBlend mode="normal" in="SourceGraphic" in2="effect1_dropShadow" result="shape"/>
</filter>
<clipPath id="clip0">
<rect width="20" height="20" fill="white" transform="translate(6 2)"/>
</clipPath>
</defs>
</svg>
