<svg id="Icons" height="512" viewBox="0 0 74 74" width="512" xmlns="http://www.w3.org/2000/svg"><path d="m9 30.52a1 1 0 0 1 -.712-1.7 12.6 12.6 0 0 1 2.477-1.944 1 1 0 1 1 1.035 1.71 10.612 10.612 0 0 0 -2.084 1.636 1 1 0 0 1 -.716.298z"/><path d="m17.14 49.97a12.439 12.439 0 0 1 -12.42-12.43c0-.3.011-.609.033-.9a1.011 1.011 0 0 1 1.069-.926 1 1 0 0 1 .925 1.07c-.018.247-.027.5-.027.758a10.428 10.428 0 1 0 12.172-10.276 1 1 0 1 1 .336-1.972 12.544 12.544 0 0 1 7.251 4.043 12.43 12.43 0 0 1 -9.339 20.633z"/><path d="m58.76 23.04a10.52 10.52 0 1 1 10.52-10.52 10.532 10.532 0 0 1 -10.52 10.52zm0-19.04a8.52 8.52 0 1 0 8.52 8.52 8.53 8.53 0 0 0 -8.52-8.52z"/><path d="m25.727 31a1 1 0 0 1 -.5-1.866l24.18-13.978a1 1 0 1 1 1 1.732l-24.181 13.981a1 1 0 0 1 -.499.131z"/><path d="m56.856 72a10.52 10.52 0 1 1 10.52-10.52 10.532 10.532 0 0 1 -10.52 10.52zm0-19.04a8.52 8.52 0 1 0 8.52 8.52 8.53 8.53 0 0 0 -8.52-8.52z"/><path d="m48 58.975a1 1 0 0 1 -.5-.134l-22.275-12.89a1 1 0 0 1 1-1.732l22.275 12.89a1 1 0 0 1 -.5 1.866z"/></svg>