<svg width="32" height="32" viewBox="0 0 32 32" fill="none" xmlns="http://www.w3.org/2000/svg">
<g filter="url(#filter0_d)">
<rect x="4" width="24" height="24" rx="12" fill="white"/>
</g>
<path d="M16 2C10.4777 2 6 6.47768 6 12C6 17.5223 10.4777 22 16 22C21.5223 22 26 17.5223 26 12C26 6.47768 21.5223 2 16 2ZM19.2165 12.154L14.3415 15.7009C14.3148 15.7201 14.2833 15.7316 14.2505 15.734C14.2177 15.7365 14.1848 15.7299 14.1555 15.7149C14.1262 15.6999 14.1016 15.6771 14.0844 15.649C14.0672 15.621 14.0581 15.5887 14.058 15.5558V8.46652C14.0579 8.43354 14.067 8.40118 14.0841 8.37302C14.1013 8.34486 14.1259 8.322 14.1552 8.30697C14.1846 8.29195 14.2175 8.28534 14.2504 8.2879C14.2833 8.29045 14.3148 8.30205 14.3415 8.32143L19.2165 11.8661C19.2395 11.8824 19.2583 11.9039 19.2713 11.929C19.2843 11.954 19.291 11.9818 19.291 12.01C19.291 12.0383 19.2843 12.0661 19.2713 12.0911C19.2583 12.1162 19.2395 12.1377 19.2165 12.154Z" fill="#556081"/>
<defs>
<filter id="filter0_d" x="0" y="0" width="32" height="32" filterUnits="userSpaceOnUse" color-interpolation-filters="sRGB">
<feFlood flood-opacity="0" result="BackgroundImageFix"/>
<feColorMatrix in="SourceAlpha" type="matrix" values="0 0 0 0 0 0 0 0 0 0 0 0 0 0 0 0 0 0 127 0"/>
<feOffset dy="4"/>
<feGaussianBlur stdDeviation="2"/>
<feColorMatrix type="matrix" values="0 0 0 0 0 0 0 0 0 0 0 0 0 0 0 0 0 0 0.08 0"/>
<feBlend mode="normal" in2="BackgroundImageFix" result="effect1_dropShadow"/>
<feBlend mode="normal" in="SourceGraphic" in2="effect1_dropShadow" result="shape"/>
</filter>
</defs>
</svg>
